HIERARCHY
ROOT Hips
{
	OFFSET -14.64140 90.27770 -84.91600
	CHANNELS 6 Xposition Yposition Zposition Zrotation Xrotation Yrotation
	JOINT Spine
	{
		OFFSET 0.00000 13.20850 -1.60436
		CHANNELS 3 Zrotation Xrotation Yrotation
		JOINT Spine1
		{
			OFFSET 0.00000 8.61716 0.00000
			CHANNELS 3 Zrotation Xrotation Yrotation
			JOINT Spine2
			{
				OFFSET 0.00000 8.61717 0.00000
				CHANNELS 3 Zrotation Xrotation Yrotation
				JOINT Spine3
				{
					OFFSET 0.00000 8.61717 0.00000
					CHANNELS 3 Zrotation Xrotation Yrotation
					JOINT Neck
					{
						OFFSET 0.00000 11.07920 1.10792
						CHANNELS 3 Zrotation Xrotation Yrotation
						JOINT Neck1
						{
							OFFSET 0.00000 7.08032 0.00000
							CHANNELS 3 Zrotation Xrotation Yrotation
							JOINT Head
							{
								OFFSET 0.00000 7.08031 0.00000
								CHANNELS 3 Zrotation Xrotation Yrotation
								End site
								{
									OFFSET 0.00000 0.00000 0.00000
								}
							}
						}
					}
					JOINT RightShoulder
					{
						OFFSET -0.01000 7.91373 5.19711
						CHANNELS 3 Zrotation Xrotation Yrotation
						JOINT RightArm
						{
							OFFSET -18.41580 0.00000 0.00000
							CHANNELS 3 Zrotation Xrotation Yrotation
							JOINT RightForeArm
							{
								OFFSET -29.11090 0.00000 0.00000
								CHANNELS 3 Zrotation Xrotation Yrotation
								JOINT RightHand
								{
									OFFSET -24.65040 0.00000 0.00000
									CHANNELS 3 Zrotation Xrotation Yrotation
									JOINT RightHandThumb1
									{
										OFFSET -5.35114 -0.85590 3.97906
										CHANNELS 3 Zrotation Xrotation Yrotation
										JOINT RightHandThumb2
										{
											OFFSET -4.52789 0.00000 0.00000
											CHANNELS 3 Zrotation Xrotation Yrotation
											JOINT RightHandThumb3
											{
												OFFSET -2.46976 0.00000 0.00000
												CHANNELS 3 Zrotation Xrotation Yrotation
												End site
												{
													OFFSET 0.00000 0.00000 0.00000
												}
											}
										}
									}
									JOINT RightHandIndex1
									{
										OFFSET -14.26970 0.00000 2.88139
										CHANNELS 3 Zrotation Xrotation Yrotation
										JOINT RightHandIndex2
										{
											OFFSET -5.48836 0.00000 0.00000
											CHANNELS 3 Zrotation Xrotation Yrotation
											JOINT RightHandIndex3
											{
												OFFSET -3.01859 0.00000 0.00000
												CHANNELS 3 Zrotation Xrotation Yrotation
												End site
												{
													OFFSET 0.00000 0.00000 0.00000
												}
											}
										}
									}
									JOINT RightHandMiddle1
									{
										OFFSET -14.26970 0.00000 -0.09147
										CHANNELS 3 Zrotation Xrotation Yrotation
										JOINT RightHandMiddle2
										{
											OFFSET -6.17441 0.00000 0.00000
											CHANNELS 3 Zrotation Xrotation Yrotation
											JOINT RightHandMiddle3
											{
												OFFSET -3.56743 0.00000 0.00000
												CHANNELS 3 Zrotation Xrotation Yrotation
												End site
												{
													OFFSET 0.00000 0.00000 0.00000
												}
											}
										}
									}
									JOINT RightHandRing1
									{
										OFFSET -12.69180 0.00000 -3.06433
										CHANNELS 3 Zrotation Xrotation Yrotation
										JOINT RightHandRing2
										{
											OFFSET -5.62556 0.00000 0.00000
											CHANNELS 3 Zrotation Xrotation Yrotation
											JOINT RightHandRing3
											{
												OFFSET -3.56744 0.00000 0.00000
												CHANNELS 3 Zrotation Xrotation Yrotation
												End site
												{
													OFFSET 0.00000 0.00000 0.00000
												}
											}
										}
									}
									JOINT RightHandPinky1
									{
										OFFSET -11.11390 0.00000 -6.03719
										CHANNELS 3 Zrotation Xrotation Yrotation
										JOINT RightHandPinky2
										{
											OFFSET -4.52789 0.00000 0.00000
											CHANNELS 3 Zrotation Xrotation Yrotation
											JOINT RightHandPinky3
											{
												OFFSET -2.46976 0.00000 0.00000
												CHANNELS 3 Zrotation Xrotation Yrotation
												End site
												{
													OFFSET 0.00000 0.00000 0.00000
												}
											}
										}
									}
								}
							}
						}
					}
					JOINT LeftShoulder
					{
						OFFSET 0.01000 7.91373 5.19711
						CHANNELS 3 Zrotation Xrotation Yrotation
						JOINT LeftArm
						{
							OFFSET 18.41580 0.00000 0.00000
							CHANNELS 3 Zrotation Xrotation Yrotation
							JOINT LeftForeArm
							{
								OFFSET 29.11090 0.00000 0.00000
								CHANNELS 3 Zrotation Xrotation Yrotation
								JOINT LeftHand
								{
									OFFSET 24.65040 0.00000 0.00000
									CHANNELS 3 Zrotation Xrotation Yrotation
									JOINT LeftHandThumb1
									{
										OFFSET 5.35114 -0.85590 3.97906
										CHANNELS 3 Zrotation Xrotation Yrotation
										JOINT LeftHandThumb2
										{
											OFFSET 4.52789 0.00000 0.00000
											CHANNELS 3 Zrotation Xrotation Yrotation
											JOINT LeftHandThumb3
											{
												OFFSET 2.46977 0.00000 0.00000
												CHANNELS 3 Zrotation Xrotation Yrotation
												End site
												{
													OFFSET 0.00000 0.00000 0.00000
												}
											}
										}
									}
									JOINT LeftHandIndex1
									{
										OFFSET 14.26970 0.00000 2.88139
										CHANNELS 3 Zrotation Xrotation Yrotation
										JOINT LeftHandIndex2
										{
											OFFSET 5.48836 0.00000 0.00000
											CHANNELS 3 Zrotation Xrotation Yrotation
											JOINT LeftHandIndex3
											{
												OFFSET 3.01859 0.00000 0.00000
												CHANNELS 3 Zrotation Xrotation Yrotation
												End site
												{
													OFFSET 0.00000 0.00000 0.00000
												}
											}
										}
									}
									JOINT LeftHandMiddle1
									{
										OFFSET 14.26970 0.00000 -0.09147
										CHANNELS 3 Zrotation Xrotation Yrotation
										JOINT LeftHandMiddle2
										{
											OFFSET 6.17440 0.00000 0.00000
											CHANNELS 3 Zrotation Xrotation Yrotation
											JOINT LeftHandMiddle3
											{
												OFFSET 3.56744 0.00000 0.00000
												CHANNELS 3 Zrotation Xrotation Yrotation
												End site
												{
													OFFSET 0.00000 0.00000 0.00000
												}
											}
										}
									}
									JOINT LeftHandRing1
									{
										OFFSET 12.69180 0.00000 -3.06433
										CHANNELS 3 Zrotation Xrotation Yrotation
										JOINT LeftHandRing2
										{
											OFFSET 5.62556 0.00000 0.00000
											CHANNELS 3 Zrotation Xrotation Yrotation
											JOINT LeftHandRing3
											{
												OFFSET 3.56744 0.00000 0.00000
												CHANNELS 3 Zrotation Xrotation Yrotation
												End site
												{
													OFFSET 0.00000 0.00000 0.00000
												}
											}
										}
									}
									JOINT LeftHandPinky1
									{
										OFFSET 11.11390 0.00000 -6.03719
										CHANNELS 3 Zrotation Xrotation Yrotation
										JOINT LeftHandPinky2
										{
											OFFSET 4.52789 0.00000 0.00000
											CHANNELS 3 Zrotation Xrotation Yrotation
											JOINT LeftHandPinky3
											{
												OFFSET 2.46976 0.00000 0.00000
												CHANNELS 3 Zrotation Xrotation Yrotation
												End site
												{
													OFFSET 0.00000 0.00000 0.00000
												}
											}
										}
									}
								}
							}
						}
					}
					JOINT pCube4
					{
						OFFSET 0.00000 10.91090 1.10792
						CHANNELS 3 Zrotation Xrotation Yrotation
						End site
						{
							OFFSET 0.00000 0.00000 0.00000
						}
					}
				}
			}
		}
	}
	JOINT RightUpLeg
	{
		OFFSET -9.98441 0.00000 0.00000
		CHANNELS 3 Zrotation Xrotation Yrotation
		JOINT RightLeg
		{
			OFFSET 0.00000 -42.11790 0.00000
			CHANNELS 3 Zrotation Xrotation Yrotation
			JOINT RightFoot
			{
				OFFSET 0.00000 -45.00020 -0.00001
				CHANNELS 3 Zrotation Xrotation Yrotation
				JOINT RightForeFoot
				{
					OFFSET 0.00000 -3.74820 0.00000
					CHANNELS 3 Zrotation Xrotation Yrotation
					JOINT RightToeBase
					{
						OFFSET 0.00000 0.06325 14.43120
						CHANNELS 3 Zrotation Xrotation Yrotation
						End site
						{
							OFFSET 0.00000 0.00000 0.00000
						}
					}
				}
			}
		}
	}
	JOINT LeftUpLeg
	{
		OFFSET 9.98441 0.00000 0.00000
		CHANNELS 3 Zrotation Xrotation Yrotation
		JOINT LeftLeg
		{
			OFFSET 0.00000 -42.11800 0.00000
			CHANNELS 3 Zrotation Xrotation Yrotation
			JOINT LeftFoot
			{
				OFFSET 0.00000 -45.00070 0.00000
				CHANNELS 3 Zrotation Xrotation Yrotation
				JOINT LeftForeFoot
				{
					OFFSET 0.00000 -3.74824 0.00000
					CHANNELS 3 Zrotation Xrotation Yrotation
					JOINT LeftToeBase
					{
						OFFSET 0.00000 0.06325 14.43110
						CHANNELS 3 Zrotation Xrotation Yrotation
						End site
						{
							OFFSET 0.00000 0.00000 0.00000
						}
					}
				}
			}
		}
	}
}
MOTION
Frames: 4
Frame Time: 0.050000
0.025233446932177203 0.038561599513680225 -0.013355911212705247 0.029877284475732936 0.028678427615727038 0.0494429143675752 0.3855754619576255 1.4180718824337029 -1.3562990776181039 -0.4981509611244672 3.7484460497948815 0.34472001384090556 -0.7092254349069963 -1.6781222759926924 0.7841081590539104 -0.8862077776605506 -0.5366018318081301 -0.40259754786170454 -0.3434667895117742 12.85222921219225 0.23201458508984216 0.6334738470183534 -0.5455250818527182 -0.0113733591752481 0.7186895920825618 -16.167523727643 -0.09274669325634682 -2.7081122377077635 1.4742755760454969 -15.314659212729618 72.38060725795651 14.693001849987715 5.183040557059734 13.269704885159374 5.620519914557135 89.47407467407088 23.634259365039814 -0.29264362731566207 -4.987401884603662 4.549751726671848 -0.10513504377156745 -1.5784643155002835 -0.03213827658051431 -0.04347382522141357 -56.18908521909999 0.03511380359305716 -0.003332259114873843 -56.191333336521566 -38.81672120029538 -0.0272785119380546 0.046398374722134185 -0.027584821402576475 0.027503340301262152 -0.0067787999887198485 -0.002991875057694041 -0.022491477741804898 -0.026883381619219215 -36.65413022978493 -0.015817753626557858 0.017943888297952744 -0.02932361064430705 0.044947237782399216 -0.04707633674178304 -0.02382498530056099 -0.022333131715184026 0.00047595570077505145 -19.73852625564677 -0.0103725998495727 0.004481898045125664 -0.0375968009315603 0.047331372725357444 0.04737223064141932 0.026245977085717128 0.024815246866729337 0.023818471449628318 24.032858554860844 0.006860423595975569 -0.027511531147161133 28.87163245206429 -0.0005294438441527469 0.023463101657126312 28.902385626470377 0.009734598213543345 0.03917934462279404 5.492340832722138 1.5655386053572364 14.161736624563954 -76.94892041504912 26.558900653698267 -8.471157591365449 -58.938605333693346 15.515352559733259 -103.39411137803486 -21.27570297911517 0.5809462131304567 0.9904321767846342 -0.5045553484249814 0.04373105923632793 -8.138326069666155 -0.009837323180963529 0.005982149411697701 44.51859324331585 -0.02882323470789615 0.023942184250453864 44.599654240919804 12.4895048104731 0.01422500241583361 -0.030172573937469107 -0.009306835079411446 -0.02877147575782825 0.046523509056967206 0.020312755977630135 0.017770128143184655 0.03728792947768994 11.124044603963375 0.031751799186568154 -0.034234032098377006 -0.019337848166670977 -0.018370439579538815 0.006773772173294177 -0.0057977007294273035 0.03439302924747789 -0.01592306752496426 4.794417876365259 0.043558029890467156 0.014453864454506369 0.03156966455794304 0.001459059832918041 -0.04486444181060107 -0.040637560753096165 -0.04504728636792829 -0.025460322299793562 -5.618758034388534 -0.03758293850246129 0.00386791731405256 -6.751408241000487 -0.016732201772624317 0.04526536766077638 -6.754785493162218 -0.04598932754101758 -0.049616393199058154 -0.0027615710664260535 -0.04766077769573081 0.024377531983977536 8.026809671032876 3.451983033945074 -19.233791981506986 0.01950209056012841 10.356505601048301 -0.0005659751187953449 -5.630685916270098 -15.690892257657094 3.1684623264748812 0.0033742782948267516 -0.022339667539383014 0.008382649362314507 0.021995766125643246 4.660635300945426 -0.03263182851206074 12.484394120903211 -8.228533429513988 6.891123023953921 -0.0006379984103597001 46.345186753494005 0.0007758957468835945 -4.321741425611433 -14.791338312103445 -3.8583935816401116 0.0259041151947156 0.0044069102048056585 -0.03799718537725178 -0.018807618544396717 -10.709355584473194 0.016024935598383732 
0.0019346772394469418 -0.034023450282255195 -0.007308148875575383 0.03431692841799234 -0.04393628493051116 -0.019594245930470242 -0.03509215343394409 1.43636788906686 -1.3677310506029854 -0.4916206837330771 3.837991510609707 0.2911006863072635 -0.7139711173127409 -1.624491350780131 0.662827346392605 -0.871970112231095 -0.5303400734885773 -0.4078088553385656 -0.3768286129237745 13.024817820445234 0.28746009887377116 0.6932073267560556 -0.6192971059921649 0.07727825722530011 0.7334456510270883 -16.15537501136846 -0.08433171695926045 -2.2908872104709466 1.2544469447529583 -15.21359899196162 71.97904484129735 14.931885011333819 5.163586058940462 12.506769330760234 6.062395171696142 87.54516939078603 24.107281749338693 -0.25572527454927485 -4.694918753688061 4.48520994987859 -0.16284257070442312 -1.5562074778068176 -0.0305476410995455 0.002403802454834236 -56.20556032937872 -0.03362250847575489 0.003334913437511783 -56.22041614612404 -38.80580602225509 0.007642218413957785 0.02534581145195514 0.018478579501830933 -0.024599566659522735 -0.023255636884172287 -0.03427841118311358 -0.029352418199927267 0.01869816695576684 -36.657677454313855 -0.02856134977701476 -0.04984545291833277 -0.014866043349654638 0.016991461868298776 0.02317470841675829 0.04601823973676041 0.03397390521881611 0.019677134410060512 -19.774890195482488 -0.044517388447201045 0.04342917102757709 0.04592421018915139 0.010220449664023848 0.03349870509360353 -0.022281680172835935 0.03446257664874669 0.03784239060231852 24.012432581958066 -0.004765428414804062 -0.013311608643895344 28.84674757250218 -0.014024117855613239 -0.012237801627667615 28.81681287535157 0.02573831452773932 -0.003976288589860903 5.239923357663362 1.4758258746013329 14.135597902018954 -76.88070904613592 26.876338946393247 -8.806104605079764 -55.64011328992389 14.573423014371095 -102.6032134011686 -21.211101512595523 0.9132384452505259 0.7830526738638084 -0.46877486311755995 0.07549894247403176 -8.150808830193021 -0.048861700839280375 -0.046836026828012335 44.58095186083938 -0.011019632229764225 -0.03190743642004252 44.54442189891427 12.477122216067226 -0.02115651058625732 -0.00869703420176145 0.032472710397407005 -0.03929165091620553 0.023414223749610736 -0.016207210531331315 -0.04812443702717295 -0.027820536930983603 11.072892121495903 -0.0004420007902345527 0.030902901772306084 -0.020452836627067508 -0.02214133225688056 -0.013579110515686669 0.03606881698069191 -0.009603594276065185 0.027901683665008038 4.756222615619799 0.029255535602584117 0.042221552797646736 0.02916118838315428 -0.01095013886061192 0.03564340933642703 -0.027996695542847255 0.04822730239636373 -0.04092991490005303 -5.616373154937305 0.009505681727889178 0.0407032139340726 -6.683670694870251 0.048675054536386014 -0.03177256822093654 -6.73620545728081 -0.004414276233451814 0.00030093314318058466 0.012501800504997725 0.02550708647274995 -0.03516704684848435 8.079105660015014 3.5241662319638642 -19.210426536343473 0.025661580523247626 10.397460265331775 -0.03234281591193014 -5.661672737315271 -15.653690533275205 3.1636380858515847 0.0028123758574632976 -0.02621462103651634 0.04730628699064687 -0.013593115615480022 4.6849299892923195 0.03605232790612774 12.464623759352813 -8.23785501444882 6.903627216788424 -0.0029807110016897183 46.37124731073838 0.022132403870699518 -4.3614104073152635 -14.766180177466012 -3.8391072855687107 0.014120977532388354 -0.04342765252262869 -0.0035657542052477268 0.004191596816254339 -10.697853185969167 0.01372640673169477 
0.04680238900647277 0.04819552279722228 0.0011199905749493483 0.002439469397490811 -0.037297943185809306 -0.020655355729507788 -0.5225227246021432 1.4359370416314805 -1.2791689039163368 -0.4941099928560417 3.9452254546459247 0.33206834959049103 -0.781873786720639 -1.706270002106296 0.6276314332586768 -0.8578601671836412 -0.5526130215449745 -0.4933988892153499 -0.4096815353910689 13.22789666054811 0.32736461797420097 0.6971133451288342 -0.6312034049401851 0.18249823206197452 0.7115421421334063 -16.174049882507354 -0.04615111065539638 -1.7836223020654622 1.051188974279682 -15.194454308662143 71.44748836095432 14.273811728263262 5.278546689099699 12.365182306690507 6.989475994635215 85.0265507410211 24.697802691413667 -0.28737757582891876 -4.305824424256032 4.526799988205503 -0.14555055329813218 -1.6408182300316287 -0.002954606584418311 0.02280950200349574 -56.27052954017452 0.04252850786930784 0.04266335159587826 -56.25287338109834 -38.784902860398184 0.01081145466485024 0.0019509450277167908 -0.046298481170531695 -0.016483987247535796 0.0017712680388155021 -0.03616117301372389 0.03609307043885736 -0.01683273118375666 -36.66713741264536 0.03867024573909705 0.03477710884926287 0.03156344664424116 -0.009094179742747698 -0.015666872289968034 -0.023050411129920373 -0.017225214685359667 -0.02852909981996694 -19.761512910810684 0.030485658381977067 0.020356995763930012 0.01763899175786823 0.015151942563019478 0.04730328045082247 -0.010371062314087364 0.03751070279340514 0.0231061270831192 24.016125281829527 -0.0001591794906019606 0.030690825491730453 28.83217023593291 0.03017226529619742 0.030495341966220692 28.847802710499764 0.03396073384139168 0.0059863610574224495 4.904686591671971 1.391749710287546 14.154021253636374 -76.77117327572473 26.953227788119218 -9.27106969494822 -51.79714268138433 13.620775444084508 -101.81191576969175 -21.099639030352193 1.669803526619913 0.24144974383351514 -0.4935887133815304 0.02816911268858862 -8.170556121983777 0.04224714553068858 0.030213709600267123 44.55374121463711 -0.03423981065272626 0.04248826170934545 44.53079331759485 12.487671599264369 -0.02271208940738105 0.005801936747404402 -0.03789491457931206 0.029534840376661636 -0.0002551470613770726 -0.03233284693621358 -0.009450269111707694 -0.041501360475546804 11.087671691392204 -0.02543814540912932 -0.0247922563111955 0.032706252213772415 0.017885457251704075 -0.02724888626992254 -0.023339567394207075 0.0437609476922752 -0.0031340661155424836 4.815538802918916 0.04819213214282864 0.04322552784451329 0.0032417724645798394 0.012064140976789454 -0.03499440522482435 0.04516415036050364 -0.04302407894130657 0.026791694397633375 -5.640520251104617 0.03240703521591307 0.019171854713960112 -6.732724489893828 0.015966059649461815 -0.04112595025952093 -6.747388916651081 -0.028805353156774672 -0.03166310330780638 -0.030380890419116964 -0.03666628690366273 0.0410891233085673 8.072807773911832 3.4902056916455932 -19.217023870233014 -0.0018283820117939284 10.421339680200882 0.04530746203742606 -5.5951766262844265 -15.696965428225152 3.158325930795715 -0.02358483043473435 0.0474770583292916 -0.03975146341814579 -0.016876582496766518 4.677374618543212 -0.0077089900696978055 12.490932102468218 -8.203414905145953 6.887089426686309 -0.020606804395270427 46.367945764317255 0.045427796145964636 -4.327979986552202 -14.7274146741416 -3.828294457462864 0.04638134735662232 -0.028133794678278964 -0.03552001477910811 0.011656143216359414 -10.755135959908541 0.016345815295283003 
-0.00976944645086042 -0.027835555066540854 -0.03175997971038157 -0.03273026529442692 -0.03577897204368342 -0.01867219546302797 -0.6374039863290376 1.4793473427237858 -1.1947748578136455 -0.5058270868738688 3.993051542533279 0.27217602112199246 -0.7372180112367633 -1.7803191434776688 0.5220351456381416 -0.8526930736764703 -0.564013283545996 -0.4367891549912223 -0.4532191639054865 13.41447853863074 0.38603569034293467 0.7050286191965044 -0.6887435787022295 0.3463751483094108 0.7678731742208112 -16.27743360028238 -0.012575994492249686 -1.719194198981815 1.0362982482789242 -15.231403629446314 71.28202289151456 12.445543512886378 5.522124811304393 12.204806143343916 8.311069733266512 82.41887873853746 25.078558691597127 -0.24957554422809203 -3.592979729980664 4.519782289564669 -0.12206308652961072 -1.5588311559461796 -0.020336608090428056 0.026137156736321717 -56.23864296793759 0.04510271180998868 -0.0333266404896751 -56.189219734030964 -38.79089208514626 0.03905045197795269 -0.015381560145620723 0.03178599109592794 0.01557957954616717 0.029259334903823157 -0.029027546722325697 0.03676091857889932 -0.048867433583963525 -36.73617967619758 0.01041954365483553 0.04591526230184659 -0.026470208622219934 0.007471642828461711 0.032083206157685375 0.03568345954912111 -0.0028298417891907774 -0.01986969334605366 -19.728415086396257 -0.017844684697019306 -0.0013549509822025278 0.012890243606677974 0.022093897680707828 0.017386917395522065 -0.03495878024946191 0.01770117671779336 -0.02030849724601989 24.01882775956513 -0.018826534438734086 0.002355193097362914 28.819555039530783 0.011841062731325912 -0.043542288009070666 28.857060833425148 -0.009977969758695348 0.016225214268567593 4.94375699443925 1.3789998463555484 14.246860816891374 -76.64803423839133 26.855290062236577 -9.931073462042697 -47.511667311305004 12.559835373959192 -100.9619879302843 -21.080029800104473 2.380792164195522 -0.2308523405931484 -0.42767834475220934 0.05045085246610895 -8.166640525233246 -0.010083024035472943 0.004614716249691369 44.568160438176676 -0.021703634120879223 -0.0290426217297104 44.57689793102427 12.443844169691996 -0.03627606557074072 0.0049379943865963 -0.010232209200916926 -0.012518233428559278 0.0410955999774304 0.026136524759820506 0.012587695636584637 -0.0009044421230111367 11.07416389958465 -0.040016259195010506 -0.028227662677113113 -0.03776559768125722 -0.011374096554577766 -0.04993531273137026 0.0009347246973745345 -0.04623723616804084 0.008586859294073141 4.741715245132236 0.010751007431582357 0.021222145358145025 -0.0298867264760349 -0.010585123772405027 -0.037805158227775214 -0.0068220137611679455 -0.02757600475261801 0.01761459502023781 -5.630667403078003 -0.04457315992518882 -0.03416856677292655 -6.722288392902662 0.046903869871018036 0.024170690748799045 -6.697676839590954 -0.01373824680760135 -0.02258283835646817 -0.04581723815802371 -0.046383747076585775 0.009826681757434197 8.055434922591266 3.4637231319622646 -19.218221559027032 0.012348260800233829 10.378785345707968 0.05158593613747661 -5.6068349917930345 -15.66875006861535 3.216360669632702 -0.013179300957772777 0.03454981842794601 0.022456609060015287 -0.009025191258481394 4.661635667335939 0.0403985437573659 12.413342271004812 -8.24799358154812 6.921900121880849 0.036856413956536264 46.34584726784285 0.03265737333285099 -4.323178390085183 -14.76909587214546 -3.813827535963394 -0.040792942144824165 0.014976056843687035 -0.027738549901236184 0.011444108726688601 -10.744539772821879 0.017586846034101416 
